<svg width="23" height="23" viewBox="0 0 23 23" fill="none" xmlns="http://www.w3.org/2000/svg">
<g id="mdi:location">
<path id="Vector" d="M11.5001 11.0208C10.8647 11.0208 10.2553 10.7684 9.80597 10.3191C9.35667 9.86979 9.10425 9.2604 9.10425 8.62499C9.10425 7.98957 9.35667 7.38019 9.80597 6.93088C10.2553 6.48157 10.8647 6.22916 11.5001 6.22916C12.1355 6.22916 12.7449 6.48157 13.1942 6.93088C13.6435 7.38019 13.8959 7.98957 13.8959 8.62499C13.8959 8.93961 13.8339 9.25116 13.7135 9.54183C13.5931 9.83251 13.4167 10.0966 13.1942 10.3191C12.9717 10.5416 12.7076 10.718 12.4169 10.8385C12.1263 10.9589 11.8147 11.0208 11.5001 11.0208ZM11.5001 1.91666C9.72092 1.91666 8.01463 2.62343 6.75657 3.88148C5.49852 5.13954 4.79175 6.84583 4.79175 8.62499C4.79175 13.6562 11.5001 21.0833 11.5001 21.0833C11.5001 21.0833 18.2084 13.6562 18.2084 8.62499C18.2084 6.84583 17.5016 5.13954 16.2436 3.88148C14.9855 2.62343 13.2792 1.91666 11.5001 1.91666Z" fill="white"/>
</g>
</svg>
