<svg width="109" height="31" viewBox="0 0 109 31" fill="none" xmlns="http://www.w3.org/2000/svg">
<g id="logos:instagram" clip-path="url(#clip0_59_546)">
<path id="Vector" d="M5.77505 0.191443C3.55099 1.12059 1.10636 3.74222 0.334208 7.03544C-0.643811 11.2066 3.42538 12.9711 3.75941 12.3933C4.15219 11.7137 3.03026 11.4839 2.79927 9.31946C2.5008 6.52394 3.8039 3.40037 5.44401 2.02979C5.74844 1.77499 5.73418 2.12958 5.73418 2.78504C5.73418 3.95731 5.66925 14.4812 5.66925 16.6775C5.66925 19.6493 5.5462 20.5877 5.325 21.5152C5.10125 22.4548 4.74104 23.0898 5.01376 23.3344C5.31862 23.6079 6.62023 22.9571 7.37365 21.9084C8.27716 20.6506 8.59351 19.1397 8.65035 17.4994C8.71891 15.5218 8.71593 12.3836 8.71891 10.5936C8.72146 8.95213 8.74658 4.14522 8.68995 1.25542C8.67612 0.546245 6.70517 -0.197331 5.77505 0.191443ZM84.7453 14.0996C84.6736 15.6447 84.3306 16.8522 83.9051 17.7041C83.0812 19.3533 81.3717 19.8652 80.6457 17.4947C80.2502 16.2025 80.2316 14.0444 80.5158 12.2411C80.8054 10.4042 81.6139 9.01689 82.9524 9.14195C84.2727 9.26574 84.8907 10.9622 84.7453 14.0996ZM62.4876 23.6854C62.4697 26.2525 62.0646 28.5031 61.196 29.1571C59.9638 30.0841 58.3077 29.3886 58.6507 27.5154C58.9541 25.8577 60.3892 24.1648 62.4912 22.0963C62.4912 22.0963 62.4955 22.5681 62.4876 23.6854ZM62.1513 14.0845C62.0759 15.4919 61.7101 16.9053 61.311 17.7041C60.4871 19.3533 58.7652 19.8688 58.0516 17.4947C57.5637 15.8726 57.6806 13.7735 57.9218 12.4507C58.2351 10.7344 58.9947 9.14216 60.3583 9.14216C61.6842 9.14216 62.3382 10.593 62.1513 14.0845ZM49.2575 14.0633C49.1766 15.5534 48.8852 16.7992 48.4175 17.7041C47.571 19.342 45.8964 19.8614 45.1581 17.4947C44.6257 15.7883 44.8068 13.4616 45.0283 12.2046C45.357 10.3393 46.18 9.01689 47.4648 9.14216C48.7845 9.27083 49.4259 10.9625 49.2575 14.0633ZM108.346 15.804C108.023 15.804 107.876 16.1356 107.754 16.6936C107.332 18.6352 106.888 19.0732 106.315 19.0732C105.675 19.0732 105.101 18.1122 104.953 16.1881C104.837 14.675 104.855 11.8897 105.004 9.11902C105.034 8.54977 104.877 7.98646 103.346 7.43185C102.687 7.1932 101.73 6.84179 101.253 7.98964C99.9057 11.2328 99.3786 13.8075 99.2545 14.853C99.2481 14.9071 99.1814 14.9184 99.17 14.7918C99.0908 13.9542 98.9143 12.4318 98.8921 9.23368C98.8879 8.60964 98.7555 8.07861 98.0648 7.64376C97.6167 7.36136 96.2561 6.86239 95.7663 7.45627C95.3418 7.94166 94.85 9.24833 94.3393 10.7975C93.9241 12.0566 93.635 12.908 93.635 12.908C93.635 12.908 93.6405 9.51119 93.6454 8.22257C93.6476 7.73655 93.3133 7.57454 93.2124 7.54524C92.759 7.41402 91.8648 7.19468 91.4855 7.19468C91.0171 7.19468 90.9026 7.45542 90.9026 7.83592C90.9026 7.88581 90.8287 12.3082 90.8287 15.4006C90.8287 15.535 90.8287 15.6815 90.8293 15.8373C90.5704 17.2586 89.7306 19.1879 88.8173 19.1879C87.9027 19.1879 87.4714 18.3814 87.4714 14.6948C87.4714 12.5441 87.5361 11.6088 87.5678 10.0533C87.5864 9.15724 87.6221 8.46929 87.62 8.31323C87.6132 7.83443 86.7833 7.59301 86.3969 7.50383C86.0088 7.41402 85.6716 7.37898 85.4083 7.39406C85.0355 7.41529 84.7717 7.65883 84.7717 7.99431C84.7717 8.17437 84.7739 8.51622 84.7739 8.51622C84.2938 7.76372 83.5216 7.24012 83.0079 7.08831C81.6241 6.67851 80.1803 7.04159 79.0912 8.56166C78.2256 9.76917 77.7038 11.1372 77.4983 13.1023C77.3482 14.5391 77.3972 15.9959 77.6642 17.2281C77.3416 18.6184 76.7432 19.1879 76.0877 19.1879C75.1361 19.1879 74.4463 17.6391 74.5264 14.96C74.5792 13.1979 74.9328 11.9613 75.3192 10.1722C75.484 9.40948 75.35 9.01031 75.0143 8.62769C74.7063 8.27671 74.0499 8.09729 73.1068 8.31769C72.4349 8.47503 71.4742 8.64425 70.5951 8.7742C70.5951 8.7742 70.6484 8.56293 70.6918 8.19093C70.9204 6.23963 68.7943 6.39781 68.1158 7.021C67.7111 7.39321 67.4354 7.83209 67.3309 8.62111C67.1648 9.87342 68.1888 10.4641 68.1888 10.4641C67.8531 11.998 67.0294 14.0015 66.1791 15.4502C65.7238 16.2263 65.3755 16.8015 64.9256 17.4128C64.911 14.9596 64.927 12.5063 64.9738 10.0535C64.9923 9.15745 65.0283 8.48776 65.0263 8.33149C65.0212 7.98157 64.8162 7.84908 64.3898 7.68177C64.0126 7.53356 63.5668 7.43122 63.1042 7.39512C62.5204 7.35011 62.1687 7.65862 62.1781 8.02383C62.1798 8.09283 62.1798 8.51622 62.1798 8.51622C61.6997 7.76372 60.9276 7.24012 60.4139 7.08831C59.0301 6.67851 57.5862 7.04159 56.4971 8.56166C55.6317 9.76917 55.065 11.464 54.9042 13.0874C54.7548 14.6003 54.7823 15.8859 54.9862 16.9692C54.7663 18.0538 54.1336 19.1881 53.4185 19.1881C52.5039 19.1881 51.9836 18.3814 51.9836 14.6948C51.9836 12.5441 52.0483 11.6088 52.0803 10.0533C52.0988 9.15745 52.1343 8.46929 52.1324 8.31323C52.1256 7.83443 51.2955 7.59322 50.9091 7.50383C50.5051 7.41041 50.1562 7.37644 49.8881 7.39618C49.5347 7.4223 49.2861 7.73803 49.2861 7.97351V8.51622C48.806 7.76372 48.0338 7.24012 47.5201 7.08831C46.1363 6.67851 44.7006 7.04754 43.6034 8.56166C42.8881 9.54877 42.3088 10.6431 42.0107 13.0658C41.9245 13.7658 41.8864 14.4217 41.8915 15.0343C41.6062 16.7745 40.3459 18.7802 39.3153 18.7802C38.7122 18.7802 38.1376 17.6132 38.1376 15.1266C38.1376 11.8143 38.3433 7.09807 38.3782 6.64369C38.3782 6.64369 39.6804 6.62161 39.9325 6.61863C40.5822 6.61142 41.1705 6.62692 42.0359 6.58254C42.4697 6.56067 42.8879 5.00706 42.4399 4.8149C42.2368 4.72785 40.8022 4.65183 40.2333 4.63973C39.7552 4.62911 38.4237 4.53059 38.4237 4.53059C38.4237 4.53059 38.5432 1.40023 38.5711 1.06964C38.5945 0.79382 38.2368 0.651984 38.032 0.565991C37.5334 0.355786 37.0874 0.25493 36.5588 0.146217C35.8282 -0.00411139 35.4969 0.143032 35.4322 0.757724C35.3347 1.69091 35.2842 4.42422 35.2842 4.42422C34.7482 4.42422 32.9169 4.31975 32.3808 4.31975C31.8827 4.31975 31.3449 6.45663 32.0338 6.48296C32.8262 6.51353 34.2072 6.54029 35.1227 6.56746C35.1227 6.56746 35.0818 11.3614 35.0818 12.8418C35.0818 12.9989 35.0826 13.1507 35.0835 13.2979C34.5796 15.9169 32.8049 17.3319 32.8049 17.3319C33.186 15.5991 32.4075 14.2977 31.0051 13.1962C30.4885 12.7904 29.4685 12.022 28.3274 11.1799C28.3274 11.1799 28.9882 10.5302 29.5745 9.22306C29.9897 8.29688 30.0078 7.23757 28.9882 7.0038C27.3038 6.61736 25.9151 7.8512 25.5009 9.16849C25.1798 10.1889 25.351 10.9459 25.9799 11.7324C26.0256 11.7899 26.0757 11.8487 26.1268 11.9077C25.7467 12.6386 25.2243 13.6227 24.7819 14.3858C23.554 16.5049 22.6264 18.1806 21.9254 18.1806C21.365 18.1806 21.3725 16.479 21.3725 14.8859C21.3725 13.5125 21.4742 11.4476 21.5556 9.31011C21.5824 8.60306 21.2277 8.20027 20.6338 7.83549C20.2727 7.61382 19.5022 7.17812 19.056 7.17812C18.388 7.17812 16.4609 7.26879 14.6402 12.5218C14.4107 13.1838 13.9598 14.3903 13.9598 14.3903L13.9988 8.0733C13.9988 7.92509 13.9196 7.78198 13.7384 7.6841C13.4317 7.51785 12.6122 7.17812 11.8835 7.17812C11.5365 7.17812 11.363 7.33907 11.363 7.66011L11.2996 17.5432C11.2996 18.2942 11.3192 19.1702 11.3937 19.5533C11.4677 19.9367 11.588 20.2489 11.7366 20.4344C11.8854 20.6198 12.0572 20.7614 12.3406 20.8196C12.6044 20.8738 14.0486 21.0587 14.1238 20.5083C14.2136 19.8484 14.2172 19.135 14.9755 16.4737C16.1562 12.3303 17.6954 10.3089 18.4193 9.59081C18.5459 9.46554 18.6903 9.4579 18.6833 9.66322C18.6526 10.5716 18.5438 12.8418 18.4708 14.7697C18.2747 19.9304 19.2159 20.8869 20.5612 20.8869C21.5903 20.8869 23.0409 19.8671 24.5959 17.2856C25.4623 15.847 26.3247 14.406 27.1831 12.9626C27.6542 13.3977 28.1833 13.8658 28.7117 14.3661C29.9401 15.5288 30.3433 16.6338 30.0757 17.6818C29.8713 18.4829 29.1004 19.3087 27.7288 18.5063C27.329 18.2721 27.1582 18.091 26.7563 17.827C26.5404 17.6854 26.2106 17.643 26.0129 17.7916C25.4994 18.1776 25.2056 18.6689 25.0378 19.277C24.8748 19.8688 25.4689 20.1816 26.085 20.4552C26.6153 20.6907 27.7554 20.9041 28.4822 20.9283C31.3147 21.0228 33.5839 19.5643 35.1635 15.8021C35.4463 19.0513 36.6495 20.8899 38.7403 20.8899C40.1382 20.8899 41.5396 19.0879 42.1525 17.3151C42.3284 18.0377 42.589 18.6662 42.9253 19.1976C44.5363 21.7434 47.6615 21.1956 49.2314 19.0337C49.7167 18.3657 49.7906 18.1258 49.7906 18.1258C50.0197 20.1669 51.6679 20.8801 52.6114 20.8801C53.6684 20.8801 54.7595 20.3818 55.5244 18.6645C55.614 18.8509 55.712 19.029 55.8188 19.1976C57.4298 21.7434 60.5552 21.1956 62.1251 19.0337C62.1992 18.9322 62.2635 18.8405 62.3194 18.7577L62.3654 20.0985L60.9201 21.4207C58.4974 23.6353 56.6572 25.3148 56.5218 27.271C56.3493 29.7652 58.3765 30.6923 59.9123 30.8137C61.5403 30.9426 62.937 30.0449 63.7941 28.7885C64.5486 27.6825 65.0425 25.3023 65.0061 22.9516C64.9919 22.0101 64.9678 20.8132 64.9493 19.5301C65.7998 18.5451 66.758 17.3 67.6402 15.843C68.6016 14.255 69.632 12.1224 70.1596 10.4626C70.1596 10.4626 71.0548 10.4705 72.0102 10.4081C72.3157 10.3881 72.4036 10.4505 72.347 10.6737C72.2789 10.9438 71.1399 15.3247 72.1795 18.2432C72.8907 20.2412 74.4944 20.8837 75.4452 20.8837C76.5584 20.8837 77.6231 20.0455 78.1936 18.8008C78.2626 18.9394 78.3344 19.0736 78.4129 19.1978C80.0238 21.7437 83.1382 21.1922 84.7191 19.0337C85.076 18.5466 85.2784 18.1258 85.2784 18.1258C85.6176 20.2385 87.2649 20.8909 88.2084 20.8909C89.1911 20.8909 90.124 20.489 90.8806 18.7031C90.9126 19.4896 90.9622 20.1325 91.0407 20.3351C91.0886 20.4593 91.3679 20.6147 91.571 20.6899C92.4703 21.0224 93.387 20.8653 93.7263 20.7969C93.9614 20.7493 94.1447 20.5612 94.1698 20.0758C94.2358 18.8008 94.1953 16.6586 94.5828 15.0663C95.2332 12.3946 95.8401 11.3582 96.128 10.8453C96.2891 10.5575 96.4707 10.5102 96.4773 10.8145C96.4909 11.4302 96.5216 13.2378 96.7737 15.6668C96.9589 17.4529 97.2058 18.5088 97.3959 18.8433C97.9384 19.7987 98.6079 19.844 99.1533 19.844C99.5004 19.844 100.226 19.7484 100.161 19.1403C100.129 18.8439 100.185 17.0119 100.826 14.3797C101.245 12.6607 101.943 11.1077 102.195 10.5397C102.288 10.3304 102.331 10.4953 102.329 10.5276C102.276 11.7113 102.157 15.5834 102.641 17.7011C103.297 20.5699 105.193 20.8909 105.853 20.8909C107.264 20.8909 108.418 19.8208 108.806 17.0049C108.9 16.3272 108.761 15.804 108.346 15.804Z" fill="#5A5A5A"/>
</g>
<defs>
<clipPath id="clip0_59_546">
<rect width="109" height="31" fill="white"/>
</clipPath>
</defs>
</svg>
