<svg width="10" height="7" viewBox="0 0 10 7" fill="none" xmlns="http://www.w3.org/2000/svg">
<path d="M8.70788 -6.71581e-06L0.457878 -7.43705e-06C0.37435 0.000254339 0.292476 0.0232918 0.221067 0.0666243C0.149659 0.109957 0.0914208 0.171943 0.0526215 0.245912C0.0138212 0.319882 -0.00407067 0.403032 0.000872216 0.486414C0.00581415 0.569795 0.033403 0.65025 0.080669 0.719118L4.20567 6.67745C4.37663 6.92449 4.78821 6.92449 4.95963 6.67745L9.08463 0.719119C9.13237 0.650394 9.16037 0.569899 9.16559 0.486379C9.1708 0.402859 9.15302 0.319508 9.11418 0.245382C9.07535 0.171256 9.01694 0.109189 8.94531 0.0659275C8.87368 0.022665 8.79156 -0.000138316 8.70788 -6.71581e-06Z" fill="black"/>
</svg>
